<?xml version="1.0" encoding="UTF-8" standalone="no"?>
<!-- Created with Inkscape (http://www.inkscape.org/) -->

<svg
   xmlns:dc="http://purl.org/dc/elements/1.1/"
   xmlns:cc="http://creativecommons.org/ns#"
   xmlns:rdf="http://www.w3.org/1999/02/22-rdf-syntax-ns#"
   xmlns:svg="http://www.w3.org/2000/svg"
   xmlns="http://www.w3.org/2000/svg"
   xmlns:sodipodi="http://sodipodi.sourceforge.net/DTD/sodipodi-0.dtd"
   xmlns:inkscape="http://www.inkscape.org/namespaces/inkscape"
   width="64px"
   height="64px"
   id="svg2985"
   version="1.1"
   inkscape:version="0.48.4 r9939"
   sodipodi:docname="Globe_Full_SVG_NoOcean_Abstract.svg">
  <defs
     id="defs2987" />
  <sodipodi:namedview
     id="base"
     pagecolor="#ffffff"
     bordercolor="#666666"
     borderopacity="1.0"
     inkscape:pageopacity="0.0"
     inkscape:pageshadow="2"
     inkscape:zoom="5.5"
     inkscape:cx="1.0909096"
     inkscape:cy="29.393697"
     inkscape:current-layer="layer1"
     showgrid="true"
     inkscape:document-units="px"
     inkscape:grid-bbox="true"
     inkscape:window-width="1920"
     inkscape:window-height="1018"
     inkscape:window-x="-8"
     inkscape:window-y="-8"
     inkscape:window-maximized="1" />
  <metadata
     id="metadata2990">
    <rdf:RDF>
      <cc:Work
         rdf:about="">
        <dc:format>image/svg+xml</dc:format>
        <dc:type
           rdf:resource="http://purl.org/dc/dcmitype/StillImage" />
        <dc:title />
      </cc:Work>
    </rdf:RDF>
  </metadata>
  <g
     inkscape:groupmode="layer"
     id="layer3"
     inkscape:label="LandMass"
     style="display:none">
    <path
       inkscape:connector-curvature="0"
       id="path3834-7-2"
       d="m 17.681818,4.9318183 -2.15625,2 -2.84375,1.125 -0.78125,1.84375 -0.65625,0.7187497 -2.7500001,1.3125 2.4062501,-0.53125 2.0625,-0.75 2.59375,1.6875 1.3125,4.84375 -0.5625,2.96875 -1.6875,3.34375 -1,2.90625 0.4375,4.53125 1.875,3.34375 1.6875,1.375 1.25,2.375 3.25,4.71875 c 0,0 0.853257,0.578046 0.8125,-0.3125 -0.04076,-0.890544 -2.0625,-3.28125 -2.0625,-3.28125 0,0 -1.170056,-1.463144 -1,-1.96875 0.170056,-0.505606 0.234859,-0.967712 0.5,-0.625 0.265141,0.34271 1.84375,3.0625 1.84375,3.0625 l 2.65625,4.6875 3.53125,2.59375 2.3125,0.09375 3.40625,1.59375 4.84375,3.53125 1.40625,0.28125 1.8125,0.1875 -1.84375,2.875 -0.625,2 c 0,0 0.03401,1.961059 0.71875,2.46875 0.593144,0.439774 2.15625,0.5625 2.15625,0.5625 0,0 1.514717,0.939442 1.78125,0.9375 1.832331,-0.823253 3.694083,-1.842837 5.46875,-3 1.774666,-1.157163 3.495423,-2.722223 4.71875,-4 1.223327,-1.277777 2.977289,-3.202159 3.59375,-4.09375 -0.524663,-0.447466 -1.8125,-1.59375 -1.8125,-1.59375 l -3.15625,-0.4375 -4.625,0.71875 -3.25,0.9375 -2.1875,1.90625 -0.59375,-0.03125 -1.21875,-0.5625 c 0,0 -2.09375,-0.350397 -2.09375,-1.09375 0,-0.74335 0.620077,-2.510768 -0.03125,-3.28125 -0.509694,-0.602936 -2.28125,-0.0625 -2.28125,-0.0625 l 0.375,-3.5 -1,-0.125 c 0,0 -0.819561,1.284341 -1.5,1.46875 -0.65726,0.178128 -1.295,0.132456 -1.96875,-0.46875 -1.154417,-1.030118 -2.28125,-2.171213 -2.28125,-3.84375 0,-1.67254 0.6875,-2.875 0.6875,-2.875 l 1.46875,-1.1875 2.8125,-0.9375 4.09375,0.1875 c 0,0 2.033756,0.197474 2.40625,1.3125 0.372497,1.115024 1.0625,2.1875 1.0625,2.1875 0,0 0.614203,1.088833 1.15625,1.21875 0.424419,0.101728 1.269319,-0.0024 1.25,-0.4375 -0.03231,-0.727806 -0.851877,-2.460014 -1.03125,-3.15625 -0.761637,-1.444413 -1.164124,-0.642866 -0.84375,-3.1875 0.220236,-1.749262 1.40625,-2.1875 1.40625,-2.1875 l 3.25,-3.40625 -0.28125,-1.8125 1.1875,-1.625 0.5,-1.71875 1.125,-1.6875 1.8125,-3.0625 -1.125,0.0625 -0.9375,-0.84375 -1.5,1.40625 0.90625,-1.65625 1.15625,-0.53125 0.875,-1.09375 c 0,0 -0.380009,-1.626663 -1.125,-1.8125 -0.744991,-0.185837 -6.65625,-2.9375 -6.65625,-2.9375 l -2.71875,-0.5625 -4,-0.1874997 2.09375,3.3437497 c 0,0 1.00176,2.740037 0.03125,3.0625 -0.801163,0.266196 -1.75,-2.84375 -1.75,-2.84375 l -4.09375,-0.6875 c 0,0 -1.99875,-0.947474 -1.8125,-2.0625 0.186247,-1.1150236 1.90625,-2.7812497 1.90625,-2.7812497 0,0 -0.925344,-1.7936411 -2.21875,-1.75 -1.293405,0.043641 -4.002505,1.09375 -4.375,1.09375 -0.744993,0 -5.84375,-0.34375 -5.84375,-0.34375 l -2,-1.5 -1.71875,-0.4375 z m 21.125,11.4999997 0.40625,0.78125 c 0,0 1.577335,0.292534 1.625,0.71875 0.04903,0.438428 -1.59375,0.71875 -1.59375,0.71875 0,0 -1.192718,0.1875 -1.5625,0.1875 -0.184891,0 -0.632826,0.301018 -1.1875,0.40625 -0.554674,0.105232 -0.625,-0.53125 -0.625,-0.53125 l 0.53125,-1.21875 1.25,-0.875 1.15625,-0.1875 z m 3.875,1.59375 c 0.368916,-0.02408 0.79109,0.0012 1.15625,0.09375 0.730321,0.18503 0.67714,0.362923 0.96875,0.625 -0.309287,0.332231 -0.65625,0.53125 -0.65625,0.53125 l 0.15625,0.53125 c 0,0 0.01715,1.104922 -0.375,1.375 -0.181675,-0.185317 -0.191871,-0.178834 -0.4375,-0.875 -0.199406,-0.01801 -0.451945,0.186072 -0.625,0.375 0.029,-0.398183 0.147852,-0.418803 0.09375,-0.71875 -0.08868,-0.491628 -0.230499,-0.795471 -0.65625,-1.21875 -0.708708,-0.219403 -1.45826,0.432222 -1.53125,-0.03125 -0.06135,-0.38956 0.752577,-0.489911 1.09375,-0.5625 0.145601,-0.03098 0.443584,-0.100922 0.8125,-0.125 z m -2.15625,0.75 c 0.07579,0.01507 0.166009,0.05379 0.21875,0.125 0.202514,0.273422 0,0.59375 0,0.59375 l -0.125,0.8125 c 0,0 0.596208,1.317105 -0.3125,1.65625 -0.354577,0.132334 -0.662065,-0.749768 -0.59375,-1.34375 0.07557,-0.657096 0.07895,-0.928682 0.21875,-1.375 0.104849,-0.334738 0.366383,-0.513957 0.59375,-0.46875 z m 7.375,0.40625 1,0 -1.0625,0.625 -1.75,0.3125 c -0.670298,-0.648909 0.762704,-0.536934 1.8125,-0.9375 z m -1.96875,1.375 c 0.11211,0.0088 0.223823,0.03461 0.34375,0.09375 l -0.875,0.8125 c 0,0 -1.222098,0.934681 -1.40625,0.53125 -0.219704,-0.481316 1.03125,-1.1875 1.03125,-1.1875 0.262823,-0.125417 0.569919,-0.276417 0.90625,-0.25 z"
       style="fill:#000000;fill-opacity:1;stroke:none;display:inline" />
    <path
       sodipodi:nodetypes="ssccccs"
       style="fill:#000000;fill-opacity:1;stroke:none"
       d="m 41.098615,42.905121 c 0.0168,-0.25912 1.444172,-0.425312 2.188411,-0.511054 0.801746,-0.09237 2.328096,0.301987 2.328096,0.301987 l 3.096368,0.952417 -2.560906,-0.13938 -3.329178,-0.557513 c 0,0 -1.741669,0.244669 -1.722791,-0.04646 z"
       id="path3866-1"
       inkscape:connector-curvature="0" />
    <path
       sodipodi:nodetypes="csccccc"
       style="fill:#000000;fill-opacity:1;stroke:none"
       d="m 48.990862,44.461511 c 0,0 0.456286,-0.08961 0.664058,-0.288316 0.207772,-0.198705 -0.112341,-0.43681 0.104214,-0.501497 0.77009,-0.23003 2.39794,0.371679 2.39794,0.371679 l -0.02328,0.371674 -1.42014,0.04646 z"
       id="path3868-6"
       inkscape:connector-curvature="0" />
    <path
       sodipodi:nodetypes="ccccccc"
       style="fill:#000000;fill-opacity:1;stroke:none"
       d="m 51.924262,17.39891 1.815918,-0.04646 0.744991,-1.022107 -1.257175,-0.511054 -0.79155,-1.022106 -0.09312,1.579619 z"
       id="path3870-8"
       inkscape:connector-curvature="0" />
    <path
       sodipodi:nodetypes="ccsssscc"
       style="fill:#000000;fill-opacity:1;stroke:none"
       d="m 35.348217,3.1823343 -0.372496,1.2544035 c 0,0 0.838115,1.0221068 1.396858,1.3008634 0.558743,0.2787564 3.957764,1.1150255 4.330259,1.1150255 0.372496,0 2.554824,1.0636221 2.747154,0.6039723 C 43.627595,7.0321459 41.960011,5.1336291 41.401267,4.6690351 40.842524,4.2044411 37.815999,3.3217126 37.815999,3.3217126 z"
       id="path3872-5"
       inkscape:connector-curvature="0" />
    <path
       sodipodi:nodetypes="cccccccccc"
       style="fill:#000000;fill-opacity:1;stroke:none"
       d="M 33.159806,6.2951139 34.300573,6.434492 35.90696,7.4101396 36.908042,8.8503811 39.445667,9.0362185 38.595911,7.7005107 36.163051,6.6435596 34.847676,6.0512022 33.671988,5.6911418 z"
       id="path3874-7"
       inkscape:connector-curvature="0" />
    <path
       sodipodi:nodetypes="ccccccc"
       style="fill:#000000;fill-opacity:1;stroke:none"
       d="m 34.184169,5.2265481 -1.815916,0.3716748 -1.909039,-0.6504315 2.328097,-0.1858376 0.605305,-0.8362691 1.21061,-0.232297 z"
       id="path3876-6"
       inkscape:connector-curvature="0" />
    <path
       sodipodi:nodetypes="cccccscc"
       style="fill:#000000;fill-opacity:1;stroke:none"
       d="m 39.53879,1.6491742 2.840278,1.393782 3.724954,1.7654569 2.328097,1.1614851 2.048724,0.7898098 c 0,0 -1.332156,-1.0024323 -4.050887,-2.5088076 C 44.537475,3.202328 42.053135,2.2996056 42.053135,2.2996056 z"
       id="path3878-1"
       inkscape:connector-curvature="0" />
    <path
       sodipodi:nodetypes="ccccc"
       style="fill:#000000;fill-opacity:1;stroke:none"
       d="M 0.84582758,28.293637 1.3812895,28.24718 1.4744133,27.643206 1.1019179,27.550289 z"
       id="path3882-8"
       inkscape:connector-curvature="0" />
    <path
       style="fill:#000000;fill-opacity:1;stroke:none"
       d="m 1.683942,26.992776 -0.74499091,-0.09292 0,-0.74335 0.93123871,0 z"
       id="path3884-9"
       inkscape:connector-curvature="0" />
    <path
       sodipodi:nodetypes="ccccc"
       style="fill:#000000;fill-opacity:1;stroke:none"
       d="m 0.82254639,29.060222 -0.65186687,-0.11615 -2.6e-7,0.394904 0.4423384,0.11615 z"
       id="path3886-2"
       inkscape:connector-curvature="0" />
  </g>
  <g
     inkscape:groupmode="layer"
     id="layer1"
     inkscape:label="Outline"
     style="display:inline">
    <path
       transform="matrix(0.2454988,0,0,0.24840412,-4.6016399,-17.31951)"
       sodipodi:type="arc"
       style="fill:none;stroke:#ffffff;stroke-width:11.89627361000000000;stroke-linecap:round;stroke-linejoin:round;stroke-miterlimit:4;stroke-opacity:1;stroke-dasharray:none;display:inline"
       id="path3034-1"
       sodipodi:cx="149.09091"
       sodipodi:cy="198.54546"
       sodipodi:rx="124.36364"
       sodipodi:ry="122.90909"
       d="m 273.45455,198.54546 a 124.36364,122.90909 0 1 1 -248.727278,0 124.36364,122.90909 0 1 1 248.727278,0 z" />
  </g>
  <g
     inkscape:groupmode="layer"
     id="layer2"
     inkscape:label="AbstractLandMass"
     style="display:inline">
    <path
       style="fill:#ffffff;fill-opacity:1;stroke:none"
       d="m 9.3882184,11.168674 c 0,0 5.9888196,-0.882802 6.6027746,4.436047 0.613955,5.31885 -4.148496,10.071008 -1.488499,15.2591 7.481082,14.591202 14.657582,17.183062 25.687601,21.255325 0.2065,2.007344 -1.599295,0.803456 -1.24632,5.697457 0.172114,1.609804 2.442396,2.122844 4.451138,2.670683 0,0 6.0721,-2.758255 8.368141,-4.629183 2.29604,-1.870928 5.341365,-6.231594 5.341365,-6.231594 -2.036546,-1.80415 -5.050639,-2.053157 -7.12182,-1.780455 -2.071182,0.272701 -9.080323,2.492637 -9.080323,2.492637 0,0 -7.207929,-7.485705 -8.02714,-10.894732 -0.606704,-3.145932 9.64464,-4.046002 9.64464,-4.046002 0,0 8.330696,-14.849459 11.950955,-17.520143 3.067918,-2.263218 -15.320798,-6.065106 -12.627722,-8.7581844 0,0 5.99876,-2.8932414 2.014361,-5.1029586 C 39.872972,1.8069537 32.103528,7.3158807 26.890227,7.2018964 21.676927,7.0879121 22.398203,3.5605919 18.494949,5.4787618 14.591694,7.3969317 9.3882184,11.168674 9.3882184,11.168674 z"
       id="path3784"
       inkscape:connector-curvature="0"
       sodipodi:nodetypes="czsccczczcccsczzzc" />
  </g>
</svg>
